<?xml version="1.0" encoding="utf-8"?>
<!-- Generator: Adobe Illustrator 19.1.0, SVG Export Plug-In . SVG Version: 6.00 Build 0)  -->
<svg version="1.1" id="Layer_1" xmlns="http://www.w3.org/2000/svg" xmlns:xlink="http://www.w3.org/1999/xlink" x="0px" y="0px"
	 viewBox="287.8 332.4 511.5 179.3" style="enable-background:new 287.8 332.4 511.5 179.3;" xml:space="preserve">
<style type="text/css">
	.st0{fill:#FFFFFF;}
</style>
<g>
	<path class="st0" d="M443.7,346.1v151.9H291.8V346.1L443.7,346.1 M447.7,342H287.8V502h159.9V342L447.7,342z M326.4,367.8v22.8
		h-6.3v-22.8h-8.7V362h23.7v5.8H326.4z M362.8,390.6v-11.5h-11.6v11.5h-6.3V362h6.3v11.3h11.6V362h6.3v28.6H362.8z M383.5,390.6V362
		h6.3v28.6H383.5z M413.8,391.1c-4.3,0-8.7-1.5-12.1-4.6l3.7-4.5c2.6,2.1,5.3,3.5,8.5,3.5c2.6,0,4.1-1,4.1-2.7v-0.1
		c0-1.6-1-2.4-5.8-3.6c-5.8-1.5-9.5-3.1-9.5-8.8v-0.1c0-5.2,4.2-8.6,10-8.6c4.2,0,7.7,1.3,10.6,3.6l-3.3,4.7c-2.5-1.8-5-2.8-7.4-2.8
		c-2.4,0-3.7,1.1-3.7,2.5v0.1c0,1.9,1.2,2.5,6.2,3.8c5.8,1.5,9.1,3.6,9.1,8.6v0.1C424.4,387.9,420,391.1,413.8,391.1z M325.8,480.6
		c-8.4,0-14.7-6.5-14.7-14.7v-0.1c0-8.1,6.1-14.8,14.9-14.8c5.4,0,8.6,1.8,11.3,4.4l-4,4.6c-2.2-2-4.5-3.2-7.3-3.2
		c-4.8,0-8.3,4-8.3,8.9v0.1c0,4.9,3.4,9,8.3,9c3.3,0,5.3-1.3,7.5-3.4l4,4C334.6,478.6,331.3,480.6,325.8,480.6z M375.2,480.1
		l-2.6-6.4h-12.1l-2.6,6.4h-6.4l12.3-28.8h5.8l12.3,28.8H375.2z M366.5,458.8l-3.8,9.3h7.6L366.5,458.8z M418.8,480.1l-13.9-18.2
		v18.2h-6.2v-28.6h5.8l13.4,17.6v-17.6h6.2v28.6H418.8z M326.2,435.9c-8.9,0-15.1-6.3-15.1-14.7V421c0-8.1,6.3-14.8,15-14.8
		c5.2,0,8.3,1.4,11.2,3.9l-4,4.8c-2.2-1.8-4.2-2.9-7.5-2.9c-4.6,0-8.2,4-8.2,8.9v0.1c0,5.2,3.6,9.1,8.7,9.1c2.3,0,4.3-0.6,5.9-1.7
		v-4.1H326v-5.4h12.4v12.4C335.4,433.8,331.4,435.9,326.2,435.9z M349.6,435.4v-28.6h6.3v28.6H349.6z M386.3,435.4l-6.1-9.2h-4.9
		v9.2h-6.3v-28.6H382c6.7,0,10.8,3.6,10.8,9.4v0.1c0,4.6-2.5,7.5-6.1,8.9l7,10.2L386.3,435.4L386.3,435.4z M386.5,416.5
		c0-2.7-1.9-4.1-4.9-4.1h-6.3v8.2h6.4C384.7,420.6,386.5,419,386.5,416.5L386.5,416.5L386.5,416.5z M403.5,435.4v-28.6h6.3v22.9
		h14.3v5.7L403.5,435.4L403.5,435.4z"/>
</g>
<rect x="479.5" y="332.4" class="st0" width="2.5" height="179.3"/>
<g>
	<path class="st0" d="M705.9,405h-9.6v34h9.6c10.1,0,17-6.8,17-16.8V422C722.9,412,716.1,405,705.9,405z"/>
	<path class="st0" d="M513.8,382.1v79.7h285.5v-79.7H513.8z M566.7,450.2h-40.5v-56.4h12.4v45.1h28.1V450.2L566.7,450.2z
		 M618.9,450.2H576v-56.4h42.5v11h-30.2v11.4h26.6v11h-26.6v11.8h30.6V450.2z M672.9,450.2H630v-56.4h42.5v11h-30.2v11.4h26.6v11
		h-26.6v11.8h30.6L672.9,450.2L672.9,450.2z M735.9,422c0,15.9-12.2,28.2-30,28.2h-22v-56.4h22c17.7,0,30,12.2,30,28V422z
		 M786.9,433.5c0,11.2-8.5,17.5-20.7,17.5c-8.5,0-17.2-3-23.9-9l7.3-8.8c5.1,4.2,10.4,6.8,16.8,6.8c5.1,0,8.1-2,8.1-5.3v-0.2
		c0-3.1-1.9-4.8-11.4-7.2c-11.4-2.9-18.7-6-18.7-17.2V410c0-10.2,8.2-17,19.7-17c8.2,0,15.2,2.6,20.9,7.2l-6.4,9.3
		c-5-3.5-9.9-5.6-14.7-5.6c-4.8,0-7.2,2.2-7.2,4.9v0.2c0,3.7,2.4,4.9,12.2,7.4c11.4,3,17.9,7.1,17.9,16.9L786.9,433.5L786.9,433.5z"
		/>
</g>
</svg>
